<svg width="14" height="13" viewBox="0 0 14 13" fill="none" xmlns="http://www.w3.org/2000/svg">
<path d="M4.07422 5.57812C4.64844 5.38672 5.25 5.27734 5.90625 5.27734H8.09375C8.44922 5.27734 8.75 5.57812 8.75 5.93359C8.75 6.31641 8.44922 6.58984 8.09375 6.58984H5.90625C5.19531 6.58984 4.53906 6.75391 3.96484 7.02734C4.15625 8.75 5.63281 10.0898 7.41016 10.0898H7.4375C10.1172 10.0898 12.6875 7.35547 12.6875 3.44531C12.6875 3.08984 12.6602 2.76172 12.6055 2.43359C11.9492 2.84375 11.1289 3.08984 10.2812 3.08984H7.4375C5.85156 3.08984 4.51172 4.15625 4.07422 5.57812ZM2.625 6.28906C2.78906 3.77344 4.86719 1.77734 7.4375 1.77734H10.2812C11.0469 1.77734 11.7578 1.50391 12.3047 1.01172C12.332 0.984375 12.3594 0.984375 12.3594 0.957031C12.5508 0.792969 12.7148 0.601562 12.8516 0.382812C12.8789 0.328125 12.9336 0.246094 12.9609 0.164062C13.0703 0 13.3438 0 13.3984 0.164062C13.4531 0.273438 13.4805 0.355469 13.5078 0.464844C13.5898 0.710938 13.6719 0.957031 13.7266 1.20312C13.7266 1.25781 13.7539 1.3125 13.7539 1.36719C13.918 2.02344 14 2.73438 14 3.44531C14 7.84766 11.0742 11.4023 7.46484 11.4023H7.4375C5.19531 11.4023 3.30859 9.89844 2.76172 7.82031C1.85938 8.66797 1.3125 9.87109 1.3125 11.1836V11.6211C1.3125 12.0039 1.01172 12.2773 0.65625 12.2773C0.273438 12.2773 0 12.0039 0 11.6211V11.1836C0 9.13281 1.03906 7.32812 2.625 6.28906Z" fill="#1E1E1E"/>
</svg>
