<svg width="32" height="32" viewBox="0 0 32 32" fill="none" xmlns="http://www.w3.org/2000/svg">
<rect width="32" height="32" rx="16" fill="#00434B"/>
<path d="M20.0626 24.1251C20.0626 24.3738 19.9638 24.6122 19.788 24.788C19.6122 24.9639 19.3737 25.0626 19.1251 25.0626H12.8751C12.6265 25.0626 12.388 24.9639 12.2122 24.788C12.0364 24.6122 11.9376 24.3738 11.9376 24.1251C11.9376 23.8765 12.0364 23.638 12.2122 23.4622C12.388 23.2864 12.6265 23.1876 12.8751 23.1876H19.1251C19.3737 23.1876 19.6122 23.2864 19.788 23.4622C19.9638 23.638 20.0626 23.8765 20.0626 24.1251ZM23.1876 14.1251C23.1905 15.2143 22.9444 16.2898 22.4682 17.2694C21.992 18.249 21.2983 19.1069 20.4399 19.7775C20.3237 19.866 20.2293 19.98 20.1639 20.1107C20.0985 20.2413 20.0638 20.3852 20.0626 20.5314V20.6876C20.0626 21.102 19.898 21.4995 19.605 21.7925C19.3119 22.0855 18.9145 22.2501 18.5001 22.2501H13.5001C13.0857 22.2501 12.6883 22.0855 12.3953 21.7925C12.1022 21.4995 11.9376 21.102 11.9376 20.6876V20.5314C11.9374 20.3877 11.9042 20.2459 11.8406 20.1171C11.7769 19.9883 11.6845 19.8758 11.5704 19.7884C10.7145 19.1217 10.0214 18.269 9.54357 17.2949C9.06578 16.3208 8.81582 15.2507 8.81261 14.1657C8.79151 10.2728 11.9376 7.03137 15.8274 6.93762C16.7858 6.91459 17.739 7.08349 18.631 7.43437C19.5231 7.78526 20.3359 8.31103 21.0218 8.98076C21.7076 9.65049 22.2525 10.4506 22.6245 11.3341C22.9964 12.2176 23.1879 13.1665 23.1876 14.1251ZM21.3126 14.1251C21.3128 13.4165 21.1712 12.715 20.8962 12.0619C20.6212 11.4088 20.2184 10.8173 19.7113 10.3223C19.2043 9.82726 18.6033 9.43867 17.9438 9.1794C17.2843 8.92013 16.5796 8.79543 15.8712 8.81262C12.997 8.88137 10.672 11.2775 10.6876 14.1548C10.6903 14.9567 10.8752 15.7475 11.2285 16.4674C11.5817 17.1873 12.094 17.8175 12.7267 18.3103C13.0454 18.5563 13.3073 18.868 13.4947 19.2243C13.6821 19.5806 13.7905 19.9731 13.8126 20.3751H18.1954C18.2179 19.9724 18.3265 19.5791 18.5138 19.2218C18.7011 18.8646 18.9629 18.5516 19.2814 18.304C19.9158 17.8081 20.4286 17.1739 20.7806 16.4496C21.1326 15.7254 21.3146 14.9304 21.3126 14.1251ZM19.7446 13.7095C19.6617 13.008 19.3843 12.3437 18.9438 11.7915C18.5033 11.2393 17.9172 10.8212 17.2517 10.5845C17.019 10.5085 16.7659 10.5265 16.5464 10.6346C16.3268 10.7427 16.1582 10.9323 16.0767 11.163C15.9951 11.3938 16.0069 11.6472 16.1097 11.8693C16.2124 12.0914 16.398 12.2645 16.6267 12.3517C16.9611 12.4689 17.2561 12.6774 17.4782 12.9535C17.7004 13.2296 17.8408 13.5624 17.8837 13.9142C17.911 14.1614 18.0355 14.3876 18.2296 14.543C18.3257 14.62 18.4361 14.6773 18.5543 14.7116C18.6726 14.7459 18.7965 14.7566 18.9189 14.7431C19.0413 14.7295 19.1598 14.692 19.2677 14.6327C19.3756 14.5733 19.4707 14.4933 19.5477 14.3972C19.6247 14.3011 19.682 14.1907 19.7163 14.0725C19.7506 13.9542 19.7613 13.8303 19.7478 13.7079L19.7446 13.7095Z" fill="white"/>
</svg>
