<svg width="35" height="35" viewBox="0 0 35 35" fill="none" xmlns="http://www.w3.org/2000/svg">
<path d="M17.5 26.25C17.5 25.3798 17.8457 24.5452 18.4611 23.9298C19.0764 23.3144 19.911 22.9687 20.7812 22.9687H27.099C27.8422 22.9689 28.5635 22.7167 29.1447 22.2535C29.7258 21.7902 30.1326 21.1434 30.2982 20.4189C30.524 19.4242 30.6337 18.4066 30.625 17.3865C30.5635 10.165 24.5875 4.30253 17.3633 4.37499C13.9061 4.41101 10.6027 5.8097 8.17076 8.26722C5.73884 10.7247 4.37481 14.0426 4.375 17.5C4.375 23.2162 8.02949 27.5406 13.125 29.3412C13.6197 29.5161 14.1492 29.5698 14.669 29.4978C15.1887 29.4258 15.6837 29.2302 16.1122 28.9274C16.5408 28.6246 16.8904 28.2235 17.1319 27.7576C17.3734 27.2917 17.4996 26.7747 17.5 26.25Z" stroke="white" stroke-width="2" stroke-linecap="round" stroke-linejoin="round"/>
<path d="M17.5 8.8125C18.3716 8.8125 19.0781 9.51905 19.0781 10.3906C19.0781 11.2622 18.3716 11.9688 17.5 11.9688C16.6284 11.9688 15.9219 11.2622 15.9219 10.3906C15.9219 9.51905 16.6284 8.8125 17.5 8.8125Z" fill="white" stroke="white" stroke-width="0.125"/>
<path d="M11.4844 12.0938C12.3559 12.0938 13.0625 12.8003 13.0625 13.6719C13.0625 14.5434 12.3559 15.25 11.4844 15.25C10.6128 15.25 9.90625 14.5434 9.90625 13.6719C9.90625 12.8003 10.6128 12.0938 11.4844 12.0938Z" fill="white" stroke="white" stroke-width="0.125"/>
<path d="M11.4844 22.9688C12.3905 22.9688 13.125 22.2342 13.125 21.3281C13.125 20.422 12.3905 19.6875 11.4844 19.6875C10.5783 19.6875 9.84375 20.422 9.84375 21.3281C9.84375 22.2342 10.5783 22.9688 11.4844 22.9688Z" fill="white"/>
<path d="M23.5156 15.3125C24.4217 15.3125 25.1562 14.578 25.1562 13.6719C25.1562 12.7658 24.4217 12.0312 23.5156 12.0312C22.6095 12.0312 21.875 12.7658 21.875 13.6719C21.875 14.578 22.6095 15.3125 23.5156 15.3125Z" fill="white"/>
</svg>
