<svg width="76" height="76" viewBox="0 0 76 76" fill="none" xmlns="http://www.w3.org/2000/svg">
<path d="M36 1C37.1046 1 38 1.89543 38 3V38H73C74.1046 38 75 38.8954 75 40C74.9999 41.1045 74.1045 42 73 42H38V73C38 74.1046 37.1046 75 36 75C34.8955 74.9999 34 74.1045 34 73V42H3C1.89549 42 1.00009 41.1045 1 40C1 38.8954 1.89543 38 3 38H34V3C34 1.89549 34.8955 1.00009 36 1Z" fill="#006169"/>
<path d="M36 1V0H35.9999L36 1ZM38 3H39H38ZM38 38H37V39H38V38ZM75 40L76 40.0001V40H75ZM38 42V41H37V42H38ZM38 73H39H38ZM36 75L35.9999 76H36V75ZM34 73H35H34ZM34 42H35V41H34V42ZM1 40H0V40.0001L1 40ZM34 38V39H35V38H34ZM34 3H33H34ZM36 1V2C36.5523 2 37 2.44772 37 3H38H39C39 1.34315 37.6569 5.96046e-08 36 0V1ZM38 3H37V38H38H39V3H38ZM38 38V39H73V38V37H38V38ZM73 38V39C73.5523 39 74 39.4477 74 40H75H76C76 38.3431 74.6569 37 73 37V38ZM75 40L74 39.9999C74 40.5523 73.5521 41 73 41V42V43C74.6569 43 75.9999 41.6567 76 40.0001L75 40ZM73 42V41H38V42V43H73V42ZM38 42H37V73H38H39V42H38ZM38 73H37C37 73.5523 36.5523 74 36 74V75V76C37.6569 76 39 74.6569 39 73H38ZM36 75L36.0001 74C35.4477 74 35 73.5522 35 73H34H33C33 74.6569 34.3433 75.9999 35.9999 76L36 75ZM34 73H35V42H34H33V73H34ZM34 42V41H3V42V43H34V42ZM3 42V41C2.44785 41 2.00004 40.5523 2 39.9999L1 40L0 40.0001C0.000132978 41.6567 1.34312 43 3 43V42ZM1 40H2C2 39.4477 2.44772 39 3 39V38V37C1.34315 37 0 38.3431 0 40H1ZM3 38V39H34V38V37H3V38ZM34 38H35V3H34H33V38H34ZM34 3H35C35 2.44785 35.4477 2.00004 36.0001 2L36 1L35.9999 0C34.3433 0.000132918 33 1.34312 33 3H34Z" fill="#006169"/>
</svg>
