<svg width="94" height="23" viewBox="0 0 94 23" fill="none" xmlns="http://www.w3.org/2000/svg">
<g clip-path="url(#clip0_40000002_1578)">
<path d="M16.2465 14.0783C11.9166 14.0783 8.39369 10.5524 8.39369 6.22183H0.540176C0.540505 14.8849 7.58639 21.9312 16.2465 21.9312C24.909 21.9312 31.9559 14.8849 31.9559 6.22183H24.102C24.102 10.5524 20.5784 14.0783 16.2465 14.0783Z" fill="#004994"/>
<path d="M22.1388 6.22084C22.1388 9.47271 19.5017 12.1095 16.2465 12.1095C12.993 12.1095 10.3576 9.47271 10.3576 6.22084C10.3572 2.96535 12.993 0.328568 16.2465 0.328568C19.5017 0.328568 22.1388 2.96535 22.1388 6.22084Z" fill="#004994"/>
<path d="M47.8285 19.5973C46.878 20.8873 45.475 21.7472 44.0036 21.8605C43.4151 21.9059 42.6683 21.9505 41.7404 21.9505H37.9155V6.22183H41.0843C41.9895 6.22183 43.1891 6.26718 43.8226 6.31219C45.1579 6.42522 46.3125 6.92333 47.2627 7.87356C48.7111 9.29956 49.4126 11.3137 49.4126 14.1427C49.4126 16.2925 48.8924 18.171 47.8285 19.5973ZM45.0675 10.0237C44.5471 9.16353 43.8226 8.71109 42.5779 8.71109H41.1296V19.3709H42.827C44.9092 19.3709 45.8597 17.7636 45.8597 14.4368C45.8597 12.604 45.701 11.065 45.0675 10.0237Z" fill="#454544"/>
<path d="M58.262 22.1322C55.9081 22.1322 54.1657 21.3624 52.8984 19.733C51.7438 18.2617 51.2236 16.5873 51.2236 14.2334C51.2236 10.9066 52.3096 8.55271 54.5051 7.08169C55.6593 6.31218 56.8363 5.97276 58.33 5.97276C60.2311 5.97276 61.9512 6.58391 63.3315 7.78319L61.6568 9.75232C60.6382 8.91512 59.5746 8.53003 58.3753 8.53003C57.4474 8.53003 56.6552 8.80176 56.1118 9.32222C55.0482 10.3408 54.7768 12.0382 54.7768 14.3917C54.7768 16.6323 55.1616 18.0809 55.9538 18.8731C56.5419 19.4386 57.4021 19.756 58.4203 19.756C59.1222 19.756 59.6876 19.6423 60.2084 19.3712V15.7951H57.8092L57.4021 13.2148H63.4899V20.7286C61.8828 21.6795 60.1174 22.1322 58.262 22.1322Z" fill="#454544"/>
<path d="M77.4538 19.2802C77.0464 20.5249 75.5074 22.2449 72.1126 22.2449C69.7137 22.2449 67.9483 21.5208 67.0657 20.1404C66.5453 19.3256 66.3872 18.6918 66.3872 17.1754V6.22183H69.6233V16.5646C69.6233 17.5375 69.714 18.104 69.895 18.443C70.2571 19.1449 71.004 19.5296 72.0452 19.5296C73.4255 19.5296 74.3084 18.8508 74.4441 17.6965C74.4895 17.3571 74.4895 17.1304 74.4895 16.2932V6.22183H77.7032V16.8137C77.7029 18.307 77.6799 18.6014 77.4538 19.2802Z" fill="#454544"/>
<path d="M87.0041 22.0639H84.1297L78.7885 6.22183H82.2513L84.8539 14.4144C85.08 15.1163 85.329 15.9988 85.5781 17.1527C85.7818 16.1798 86.1892 14.8672 86.4833 14.0073L89.1542 6.22183H92.481L87.0041 22.0639Z" fill="#454544"/>
</g>
<defs>
<clipPath id="clip0_40000002_1578">
<rect width="93.3143" height="23" fill="white"/>
</clipPath>
</defs>
</svg>
