<svg width="191" height="42" viewBox="0 0 191 42" fill="none" xmlns="http://www.w3.org/2000/svg">
<path d="M0.272 15.507L0.595 12.957H1.802L2.006 15.558L1.088 14.759C1.41667 14.929 1.77933 15.065 2.176 15.167C2.57267 15.269 2.975 15.32 3.383 15.32C3.88167 15.32 4.29533 15.2463 4.624 15.099C4.95267 14.9403 5.202 14.725 5.372 14.453C5.542 14.1697 5.627 13.8523 5.627 13.501C5.627 13.2517 5.58167 13.0137 5.491 12.787C5.41167 12.5603 5.253 12.3167 5.015 12.056C4.777 11.7953 4.42567 11.5007 3.961 11.172C3.40567 10.764 2.958 10.3787 2.618 10.016C2.278 9.642 2.02867 9.268 1.87 8.894C1.72267 8.52 1.649 8.12333 1.649 7.704C1.649 7.04667 1.819 6.47433 2.159 5.987C2.499 5.48833 2.96367 5.10867 3.553 4.848C4.15367 4.576 4.83367 4.44 5.593 4.44C5.94433 4.44 6.29567 4.46833 6.647 4.525C6.99833 4.58167 7.33833 4.66667 7.667 4.78C7.99567 4.89333 8.30167 5.04067 8.585 5.222L8.245 7.653H7.021L6.851 5.171L7.735 5.97C7.395 5.766 7.072 5.62433 6.766 5.545C6.46 5.45433 6.14267 5.409 5.814 5.409C5.338 5.409 4.92433 5.477 4.573 5.613C4.233 5.749 3.97233 5.94733 3.791 6.208C3.621 6.45733 3.536 6.75767 3.536 7.109C3.536 7.381 3.587 7.636 3.689 7.874C3.80233 8.112 3.978 8.35 4.216 8.588C4.46533 8.826 4.78833 9.09233 5.185 9.387C5.77433 9.80633 6.24467 10.203 6.596 10.577C6.94733 10.9397 7.20233 11.308 7.361 11.682C7.51967 12.0447 7.599 12.4413 7.599 12.872C7.599 13.5747 7.41767 14.181 7.055 14.691C6.70367 15.201 6.21633 15.5977 5.593 15.881C4.981 16.153 4.27267 16.289 3.468 16.289C3.06 16.289 2.65767 16.255 2.261 16.187C1.87567 16.119 1.50733 16.0283 1.156 15.915C0.816 15.8017 0.521333 15.6657 0.272 15.507ZM9.554 15.082C9.554 14.878 9.57667 14.6457 9.622 14.385C9.66733 14.1243 9.71833 13.841 9.775 13.535L10.795 8.792L11.169 9.234L9.231 9.081L9.333 8.418L12.563 7.483L12.954 7.687L11.73 13.467C11.6733 13.6823 11.628 13.875 11.594 14.045C11.5713 14.215 11.56 14.351 11.56 14.453C11.56 14.5777 11.594 14.6797 11.662 14.759C11.73 14.827 11.8207 14.861 11.934 14.861C12.1153 14.861 12.3137 14.7703 12.529 14.589C12.7443 14.3963 12.9993 14.096 13.294 13.688L13.838 14.045C13.6 14.4303 13.328 14.793 13.022 15.133C12.7273 15.4617 12.3987 15.728 12.036 15.932C11.6733 16.136 11.271 16.238 10.829 16.238C10.4437 16.238 10.132 16.136 9.894 15.932C9.66733 15.728 9.554 15.4447 9.554 15.082ZM12.495 5.664C12.2003 5.664 11.9453 5.56767 11.73 5.375C11.5147 5.18233 11.407 4.92167 11.407 4.593C11.407 4.24167 11.5317 3.94133 11.781 3.692C12.0303 3.44267 12.325 3.318 12.665 3.318C12.9823 3.318 13.243 3.41433 13.447 3.607C13.651 3.79967 13.753 4.05467 13.753 4.372C13.753 4.72333 13.6283 5.02933 13.379 5.29C13.1297 5.53933 12.835 5.664 12.495 5.664ZM17.4469 16.238C16.8802 16.238 16.3816 16.1133 15.9509 15.864C15.5202 15.6033 15.1859 15.235 14.9479 14.759C14.7099 14.2717 14.5909 13.6767 14.5909 12.974C14.5909 12.2373 14.7156 11.5403 14.9649 10.883C15.2256 10.2257 15.5769 9.642 16.0189 9.132C16.4722 8.622 16.9822 8.21967 17.5489 7.925C18.1269 7.63033 18.7276 7.483 19.3509 7.483C19.7589 7.483 20.1102 7.54533 20.4049 7.67C20.6996 7.78333 20.9432 7.942 21.1359 8.146C21.3399 8.35 21.4759 8.588 21.5439 8.86C21.5212 9.132 21.4192 9.353 21.2379 9.523C21.0566 9.68167 20.8299 9.761 20.5579 9.761C20.3199 9.761 20.1102 9.68733 19.9289 9.54C19.7476 9.38133 19.5776 9.183 19.4189 8.945L18.6709 7.857H19.6739V8.095H19.2659C18.8919 8.20833 18.5406 8.41233 18.2119 8.707C17.8832 8.99033 17.5886 9.34167 17.3279 9.761C17.0786 10.169 16.8802 10.6167 16.7329 11.104C16.5969 11.5913 16.5289 12.0957 16.5289 12.617C16.5289 13.3537 16.6932 13.8977 17.0219 14.249C17.3619 14.589 17.8039 14.759 18.3479 14.759C18.6312 14.759 18.8976 14.7023 19.1469 14.589C19.4076 14.4643 19.6512 14.3057 19.8779 14.113C20.1046 13.909 20.3142 13.6937 20.5069 13.467L21.0169 13.841C20.8469 14.1583 20.6372 14.4643 20.3879 14.759C20.1386 15.0423 19.8609 15.2973 19.5549 15.524C19.2489 15.7393 18.9146 15.9093 18.5519 16.034C18.2006 16.17 17.8322 16.238 17.4469 16.238ZM22.2676 16.153L21.9446 15.983L23.5426 8.282C23.6786 7.69267 23.8033 7.109 23.9166 6.531C24.0299 5.953 24.1319 5.36367 24.2226 4.763L24.8686 5.324L22.7096 5.069L22.8116 4.423L26.0416 3.59L26.3816 3.76L25.0896 9.795L25.1236 9.999L24.6306 12.277C24.5399 12.719 24.4549 13.144 24.3756 13.552C24.2963 13.96 24.2169 14.368 24.1376 14.776C24.0696 15.1727 23.9959 15.5807 23.9166 16L22.2676 16.153ZM28.0646 16.238C27.6679 16.238 27.3619 16.1417 27.1466 15.949C26.9426 15.7563 26.8406 15.5013 26.8406 15.184C26.8406 14.9573 26.8689 14.725 26.9256 14.487C26.9936 14.2377 27.0616 13.9657 27.1296 13.671L27.7756 11.019C27.8436 10.7357 27.9003 10.475 27.9456 10.237C27.9909 9.999 28.0136 9.80067 28.0136 9.642C28.0136 9.404 27.9626 9.234 27.8606 9.132C27.7586 9.03 27.6169 8.979 27.4356 8.979C27.2203 8.979 26.9823 9.03567 26.7216 9.149C26.4723 9.251 26.1889 9.421 25.8716 9.659C25.5543 9.88567 25.2029 10.1747 24.8176 10.526L24.7666 9.744H25.0216C25.4069 9.29067 25.8036 8.89967 26.2116 8.571C26.6196 8.231 27.0389 7.96467 27.4696 7.772C27.9003 7.57933 28.3196 7.483 28.7276 7.483C29.1469 7.483 29.4756 7.602 29.7136 7.84C29.9516 8.06667 30.0706 8.40667 30.0706 8.86C30.0706 9.12067 30.0423 9.387 29.9856 9.659C29.9403 9.931 29.8836 10.203 29.8156 10.475L29.0676 13.518C29.0223 13.7333 28.9769 13.9203 28.9316 14.079C28.8976 14.2377 28.8806 14.3737 28.8806 14.487C28.8806 14.6003 28.9089 14.691 28.9656 14.759C29.0223 14.827 29.1016 14.861 29.2036 14.861C29.3849 14.861 29.5889 14.7703 29.8156 14.589C30.0536 14.3963 30.3143 14.1017 30.5976 13.705L31.1416 14.062C30.9149 14.4247 30.6486 14.776 30.3426 15.116C30.0366 15.4447 29.6909 15.7167 29.3056 15.932C28.9316 16.136 28.5179 16.238 28.0646 16.238ZM34.7797 16.238C34.2131 16.238 33.7087 16.1133 33.2667 15.864C32.8361 15.6147 32.4961 15.252 32.2467 14.776C32.0087 14.3 31.8897 13.7107 31.8897 13.008C31.8897 12.2827 32.0144 11.5913 32.2637 10.934C32.5244 10.2653 32.8757 9.676 33.3177 9.166C33.7597 8.64467 34.2697 8.23667 34.8477 7.942C35.4371 7.636 36.0661 7.483 36.7347 7.483C37.4034 7.483 37.9191 7.64167 38.2817 7.959C38.6557 8.265 38.8427 8.67867 38.8427 9.2C38.8427 9.55133 38.7351 9.90267 38.5197 10.254C38.3157 10.6053 37.9814 10.951 37.5167 11.291C37.0521 11.6197 36.4514 11.937 35.7147 12.243C34.9781 12.5377 34.0771 12.804 33.0117 13.042L32.9777 12.396C34.0431 12.1353 34.8817 11.8237 35.4937 11.461C36.1171 11.0983 36.5591 10.7243 36.8197 10.339C37.0804 9.94233 37.2107 9.574 37.2107 9.234C37.2107 8.95067 37.1371 8.73533 36.9897 8.588C36.8537 8.42933 36.6667 8.35 36.4287 8.35C36.1567 8.35 35.8621 8.46333 35.5447 8.69C35.2387 8.91667 34.9497 9.22833 34.6777 9.625C34.4057 10.0217 34.1791 10.4693 33.9977 10.968C33.8277 11.4667 33.7427 11.9937 33.7427 12.549C33.7427 13.3197 33.9014 13.8807 34.2187 14.232C34.5474 14.5833 34.9781 14.759 35.5107 14.759C35.8621 14.759 36.1737 14.7023 36.4457 14.589C36.7291 14.4643 36.9841 14.3057 37.2107 14.113C37.4374 13.909 37.6414 13.6937 37.8227 13.467L38.3327 13.858C38.1514 14.1527 37.9417 14.4473 37.7037 14.742C37.4657 15.0253 37.1937 15.2803 36.8877 15.507C36.5931 15.7337 36.2701 15.9093 35.9187 16.034C35.5787 16.17 35.1991 16.238 34.7797 16.238ZM42.4991 12.073L42.3121 10.883H42.6011C42.8617 10.2597 43.1451 9.693 43.4511 9.183C43.7684 8.66167 44.1027 8.25367 44.4541 7.959C44.8167 7.653 45.1907 7.5 45.5761 7.5C45.8934 7.5 46.1654 7.56233 46.3921 7.687C46.6187 7.81167 46.7774 7.99867 46.8681 8.248C46.8567 8.588 46.7604 8.87133 46.5791 9.098C46.3977 9.32467 46.1427 9.438 45.8141 9.438C45.5534 9.438 45.3211 9.37567 45.1171 9.251C44.9244 9.115 44.7204 8.93367 44.5051 8.707L44.2671 8.435L45.1341 8.486L44.8961 8.554C44.5787 8.83733 44.2841 9.15467 44.0121 9.506C43.7514 9.846 43.4964 10.2313 43.2471 10.662C43.0091 11.0813 42.7597 11.5517 42.4991 12.073ZM39.8131 15.983L41.3261 8.809L41.9041 9.251L39.7621 9.081L39.8811 8.418L42.9071 7.483L43.2641 7.687L42.7541 10.543L42.8561 10.696L42.5161 12.243C42.3914 12.8777 42.2667 13.5067 42.1421 14.13C42.0287 14.7533 41.9097 15.3767 41.7851 16L40.1191 16.153L39.8131 15.983ZM47.1534 16.153L46.8304 15.983L48.4284 8.282C48.5644 7.69267 48.689 7.109 48.8024 6.531C48.9157 5.953 49.0177 5.36367 49.1084 4.763L49.7544 5.324L47.5954 5.069L47.6974 4.423L50.9274 3.59L51.2674 3.76L49.9754 9.795L50.0094 9.999L49.5164 12.277C49.4257 12.719 49.3407 13.144 49.2614 13.552C49.182 13.96 49.1027 14.368 49.0234 14.776C48.9554 15.1727 48.8817 15.5807 48.8024 16L47.1534 16.153ZM52.9504 16.238C52.5537 16.238 52.2477 16.1417 52.0324 15.949C51.8284 15.7563 51.7264 15.5013 51.7264 15.184C51.7264 14.9573 51.7547 14.725 51.8114 14.487C51.8794 14.2377 51.9474 13.9657 52.0154 13.671L52.6614 11.019C52.7294 10.7357 52.786 10.475 52.8314 10.237C52.8767 9.999 52.8994 9.80067 52.8994 9.642C52.8994 9.404 52.8484 9.234 52.7464 9.132C52.6444 9.03 52.5027 8.979 52.3214 8.979C52.106 8.979 51.868 9.03567 51.6074 9.149C51.358 9.251 51.0747 9.421 50.7574 9.659C50.44 9.88567 50.0887 10.1747 49.7034 10.526L49.6524 9.744H49.9074C50.2927 9.29067 50.6894 8.89967 51.0974 8.571C51.5054 8.231 51.9247 7.96467 52.3554 7.772C52.786 7.57933 53.2054 7.483 53.6134 7.483C54.0327 7.483 54.3614 7.602 54.5994 7.84C54.8374 8.06667 54.9564 8.40667 54.9564 8.86C54.9564 9.12067 54.928 9.387 54.8714 9.659C54.826 9.931 54.7694 10.203 54.7014 10.475L53.9534 13.518C53.908 13.7333 53.8627 13.9203 53.8174 14.079C53.7834 14.2377 53.7664 14.3737 53.7664 14.487C53.7664 14.6003 53.7947 14.691 53.8514 14.759C53.908 14.827 53.9874 14.861 54.0894 14.861C54.2707 14.861 54.4747 14.7703 54.7014 14.589C54.9394 14.3963 55.2 14.1017 55.4834 13.705L56.0274 14.062C55.8007 14.4247 55.5344 14.776 55.2284 15.116C54.9224 15.4447 54.5767 15.7167 54.1914 15.932C53.8174 16.136 53.4037 16.238 52.9504 16.238ZM59.6655 16.238C59.0988 16.238 58.5945 16.1133 58.1525 15.864C57.7218 15.6147 57.3818 15.252 57.1325 14.776C56.8945 14.3 56.7755 13.7107 56.7755 13.008C56.7755 12.2827 56.9002 11.5913 57.1495 10.934C57.4102 10.2653 57.7615 9.676 58.2035 9.166C58.6455 8.64467 59.1555 8.23667 59.7335 7.942C60.3228 7.636 60.9518 7.483 61.6205 7.483C62.2892 7.483 62.8048 7.64167 63.1675 7.959C63.5415 8.265 63.7285 8.67867 63.7285 9.2C63.7285 9.55133 63.6208 9.90267 63.4055 10.254C63.2015 10.6053 62.8672 10.951 62.4025 11.291C61.9378 11.6197 61.3372 11.937 60.6005 12.243C59.8638 12.5377 58.9628 12.804 57.8975 13.042L57.8635 12.396C58.9288 12.1353 59.7675 11.8237 60.3795 11.461C61.0028 11.0983 61.4448 10.7243 61.7055 10.339C61.9662 9.94233 62.0965 9.574 62.0965 9.234C62.0965 8.95067 62.0228 8.73533 61.8755 8.588C61.7395 8.42933 61.5525 8.35 61.3145 8.35C61.0425 8.35 60.7478 8.46333 60.4305 8.69C60.1245 8.91667 59.8355 9.22833 59.5635 9.625C59.2915 10.0217 59.0648 10.4693 58.8835 10.968C58.7135 11.4667 58.6285 11.9937 58.6285 12.549C58.6285 13.3197 58.7872 13.8807 59.1045 14.232C59.4332 14.5833 59.8638 14.759 60.3965 14.759C60.7478 14.759 61.0595 14.7023 61.3315 14.589C61.6148 14.4643 61.8698 14.3057 62.0965 14.113C62.3232 13.909 62.5272 13.6937 62.7085 13.467L63.2185 13.858C63.0372 14.1527 62.8275 14.4473 62.5895 14.742C62.3515 15.0253 62.0795 15.2803 61.7735 15.507C61.4788 15.7337 61.1558 15.9093 60.8045 16.034C60.4645 16.17 60.0848 16.238 59.6655 16.238ZM64.9368 15.082C64.9368 14.878 64.9595 14.6457 65.0048 14.385C65.0501 14.1243 65.1011 13.841 65.1578 13.535L66.1778 8.792L66.5518 9.234L64.6138 9.081L64.7158 8.418L67.9458 7.483L68.3368 7.687L67.1128 13.467C67.0561 13.6823 67.0108 13.875 66.9768 14.045C66.9541 14.215 66.9428 14.351 66.9428 14.453C66.9428 14.5777 66.9768 14.6797 67.0448 14.759C67.1128 14.827 67.2035 14.861 67.3168 14.861C67.4981 14.861 67.6965 14.7703 67.9118 14.589C68.1271 14.3963 68.3821 14.096 68.6768 13.688L69.2208 14.045C68.9828 14.4303 68.7108 14.793 68.4048 15.133C68.1101 15.4617 67.7815 15.728 67.4188 15.932C67.0561 16.136 66.6538 16.238 66.2118 16.238C65.8265 16.238 65.5148 16.136 65.2768 15.932C65.0501 15.728 64.9368 15.4447 64.9368 15.082ZM67.8778 5.664C67.5831 5.664 67.3281 5.56767 67.1128 5.375C66.8975 5.18233 66.7898 4.92167 66.7898 4.593C66.7898 4.24167 66.9145 3.94133 67.1638 3.692C67.4131 3.44267 67.7078 3.318 68.0478 3.318C68.3651 3.318 68.6258 3.41433 68.8298 3.607C69.0338 3.79967 69.1358 4.05467 69.1358 4.372C69.1358 4.72333 69.0111 5.02933 68.7618 5.29C68.5125 5.53933 68.2178 5.664 67.8778 5.664ZM70.1777 8.673L70.3307 7.874L72.5747 7.619V7.721H75.8047L75.5837 8.758L72.4897 8.656H72.4387L70.1777 8.673ZM71.6737 16.238C71.2884 16.238 70.9881 16.1417 70.7727 15.949C70.5574 15.7563 70.4497 15.473 70.4497 15.099C70.4497 14.8837 70.4667 14.6513 70.5007 14.402C70.5347 14.1527 70.5857 13.875 70.6537 13.569L71.8097 8.231L73.0337 5.409H74.2747L72.5917 13.501C72.5464 13.7163 72.5067 13.9033 72.4727 14.062C72.4501 14.2093 72.4387 14.334 72.4387 14.436C72.4387 14.572 72.4784 14.674 72.5577 14.742C72.6371 14.81 72.7277 14.844 72.8297 14.844C72.9657 14.844 73.1017 14.8043 73.2377 14.725C73.3851 14.6457 73.5381 14.521 73.6967 14.351C73.8667 14.1697 74.0594 13.9373 74.2747 13.654L74.8187 14.011C74.5694 14.4077 74.2861 14.776 73.9687 15.116C73.6514 15.456 73.3001 15.728 72.9147 15.932C72.5407 16.136 72.1271 16.238 71.6737 16.238ZM84.546 16.255C83.594 16.255 82.7724 16.1077 82.081 15.813C81.401 15.5183 80.874 15.1047 80.5 14.572C80.1374 14.028 79.956 13.3933 79.956 12.668C79.956 12.1013 80.0637 11.5743 80.279 11.087C80.5057 10.5997 80.8457 10.1747 81.299 9.812C81.7637 9.438 82.3417 9.17167 83.033 9.013L82.982 9.166C82.7214 8.894 82.5287 8.61633 82.404 8.333C82.2907 8.03833 82.234 7.73233 82.234 7.415C82.234 6.89367 82.3757 6.40633 82.659 5.953C82.9424 5.49967 83.3504 5.137 83.883 4.865C84.427 4.58167 85.073 4.44 85.821 4.44C86.331 4.44 86.7674 4.50233 87.13 4.627C87.504 4.75167 87.8044 4.933 88.031 5.171C88.269 5.409 88.4277 5.68667 88.507 6.004C88.4617 6.208 88.371 6.378 88.235 6.514C88.1104 6.65 87.9234 6.718 87.674 6.718C87.436 6.718 87.232 6.65 87.062 6.514C86.892 6.378 86.7447 6.15133 86.62 5.834L86.212 4.763L87.266 5.273C87.096 5.22767 86.9204 5.19367 86.739 5.171C86.569 5.14833 86.382 5.137 86.178 5.137C85.6454 5.137 85.192 5.239 84.818 5.443C84.4554 5.63567 84.1777 5.919 83.985 6.293C83.7924 6.65567 83.696 7.092 83.696 7.602C83.696 7.84 83.7187 8.07233 83.764 8.299C83.8207 8.51433 83.9227 8.74667 84.07 8.996L83.56 8.775C83.6847 8.775 83.8037 8.76933 83.917 8.758C84.0417 8.73533 84.172 8.724 84.308 8.724C84.8634 8.724 85.277 8.809 85.549 8.979C85.821 9.13767 85.957 9.34167 85.957 9.591C85.957 9.829 85.8777 10.0103 85.719 10.135C85.5717 10.2483 85.362 10.305 85.09 10.305C84.7274 10.305 84.3704 10.2313 84.019 10.084C83.679 9.92533 83.3504 9.693 83.033 9.387L83.407 9.421C83.0217 9.61367 82.7157 9.85733 82.489 10.152C82.2624 10.4353 82.098 10.7413 81.996 11.07C81.894 11.3987 81.843 11.7387 81.843 12.09C81.843 12.6567 81.979 13.144 82.251 13.552C82.523 13.9487 82.897 14.2547 83.373 14.47C83.849 14.674 84.3817 14.776 84.971 14.776C85.5264 14.776 86.008 14.7023 86.416 14.555C86.8354 14.3963 87.1584 14.181 87.385 13.909C87.623 13.6257 87.742 13.297 87.742 12.923C87.742 12.5263 87.6174 12.209 87.368 11.971C87.13 11.733 86.722 11.5857 86.144 11.529L86.28 10.594C87.0054 10.5373 87.6174 10.3787 88.116 10.118C88.626 9.85733 89.0567 9.49467 89.408 9.03C89.7594 8.554 90.054 7.98733 90.292 7.33L91.72 7.976C91.2554 8.98467 90.6377 9.744 89.867 10.254C89.0964 10.764 88.1217 11.07 86.943 11.172V10.985C87.3737 11.0417 87.7194 11.1663 87.98 11.359C88.252 11.5517 88.4504 11.7953 88.575 12.09C88.711 12.3733 88.779 12.6907 88.779 13.042C88.779 13.4953 88.6827 13.9203 88.49 14.317C88.2974 14.7137 88.0197 15.0537 87.657 15.337C87.2944 15.6203 86.8524 15.8413 86.331 16C85.8097 16.17 85.2147 16.255 84.546 16.255ZM95.8738 11.444C95.8738 10.6393 95.9814 9.88567 96.1968 9.183C96.4121 8.469 96.7181 7.823 97.1148 7.245C97.5114 6.667 97.9818 6.16833 98.5258 5.749C99.0811 5.32967 99.6931 5.00667 100.362 4.78C101.042 4.55333 101.761 4.44 102.521 4.44C102.963 4.44 103.371 4.474 103.745 4.542C104.13 4.59867 104.493 4.695 104.833 4.831C105.173 4.95567 105.501 5.11433 105.819 5.307L105.428 7.857H104.289L104.187 5.324L105.088 6.106C104.77 5.868 104.402 5.69233 103.983 5.579C103.575 5.45433 103.133 5.392 102.657 5.392C102.101 5.392 101.58 5.49967 101.093 5.715C100.617 5.919 100.186 6.208 99.8008 6.582C99.4268 6.956 99.1038 7.39233 98.8318 7.891C98.5711 8.37833 98.3671 8.91667 98.2198 9.506C98.0838 10.084 98.0158 10.6903 98.0158 11.325C98.0158 12.1863 98.1631 12.9173 98.4578 13.518C98.7638 14.1073 99.1774 14.5607 99.6988 14.878C100.22 15.184 100.821 15.337 101.501 15.337C101.875 15.337 102.215 15.303 102.521 15.235C102.838 15.167 103.167 15.0707 103.507 14.946L102.368 15.66L102.572 14.487C102.685 13.8183 102.793 13.1497 102.895 12.481C103.008 11.8123 103.116 11.1493 103.218 10.492H105.292L104.357 15.541C103.892 15.7563 103.393 15.932 102.861 16.068C102.339 16.204 101.727 16.272 101.025 16.272C99.9594 16.272 99.0414 16.0793 98.2708 15.694C97.5001 15.2973 96.9051 14.7363 96.4858 14.011C96.0778 13.2857 95.8738 12.43 95.8738 11.444ZM101.433 11.359L101.603 10.492H106.431L106.278 11.359L104.306 11.563H103.507L101.433 11.359ZM110.051 16.238C109.485 16.238 108.98 16.1133 108.538 15.864C108.108 15.6147 107.768 15.252 107.518 14.776C107.28 14.3 107.161 13.7107 107.161 13.008C107.161 12.2827 107.286 11.5913 107.535 10.934C107.796 10.2653 108.147 9.676 108.589 9.166C109.031 8.64467 109.541 8.23667 110.119 7.942C110.709 7.636 111.338 7.483 112.006 7.483C112.675 7.483 113.191 7.64167 113.553 7.959C113.927 8.265 114.114 8.67867 114.114 9.2C114.114 9.55133 114.007 9.90267 113.791 10.254C113.587 10.6053 113.253 10.951 112.788 11.291C112.324 11.6197 111.723 11.937 110.986 12.243C110.25 12.5377 109.349 12.804 108.283 13.042L108.249 12.396C109.315 12.1353 110.153 11.8237 110.765 11.461C111.389 11.0983 111.831 10.7243 112.091 10.339C112.352 9.94233 112.482 9.574 112.482 9.234C112.482 8.95067 112.409 8.73533 112.261 8.588C112.125 8.42933 111.938 8.35 111.7 8.35C111.428 8.35 111.134 8.46333 110.816 8.69C110.51 8.91667 110.221 9.22833 109.949 9.625C109.677 10.0217 109.451 10.4693 109.269 10.968C109.099 11.4667 109.014 11.9937 109.014 12.549C109.014 13.3197 109.173 13.8807 109.49 14.232C109.819 14.5833 110.25 14.759 110.782 14.759C111.134 14.759 111.445 14.7023 111.717 14.589C112.001 14.4643 112.256 14.3057 112.482 14.113C112.709 13.909 112.913 13.6937 113.094 13.467L113.604 13.858C113.423 14.1527 113.213 14.4473 112.975 14.742C112.737 15.0253 112.465 15.2803 112.159 15.507C111.865 15.7337 111.542 15.9093 111.19 16.034C110.85 16.17 110.471 16.238 110.051 16.238ZM116.856 16.238C116.368 16.238 115.949 16.1643 115.598 16.017C115.258 15.881 114.986 15.6827 114.782 15.422C114.589 15.1613 114.459 14.844 114.391 14.47C114.447 14.2433 114.544 14.0677 114.68 13.943C114.827 13.8183 115.014 13.756 115.241 13.756C115.535 13.756 115.768 13.841 115.938 14.011C116.119 14.1697 116.244 14.4133 116.312 14.742L116.584 15.881L115.683 15.456C115.898 15.49 116.091 15.5127 116.261 15.524C116.431 15.5353 116.618 15.541 116.822 15.541C117.139 15.5183 117.405 15.456 117.621 15.354C117.847 15.2407 118.017 15.0877 118.131 14.895C118.255 14.7023 118.318 14.4813 118.318 14.232C118.318 13.9373 118.233 13.6653 118.063 13.416C117.893 13.1667 117.581 12.872 117.128 12.532C116.81 12.294 116.533 12.056 116.295 11.818C116.057 11.5687 115.87 11.3023 115.734 11.019C115.598 10.7357 115.53 10.407 115.53 10.033C115.53 9.557 115.654 9.12633 115.904 8.741C116.153 8.35567 116.499 8.04967 116.941 7.823C117.394 7.59633 117.932 7.483 118.556 7.483C119.009 7.483 119.394 7.54533 119.712 7.67C120.04 7.79467 120.301 7.976 120.494 8.214C120.698 8.44067 120.834 8.72967 120.902 9.081C120.868 9.29633 120.777 9.46633 120.63 9.591C120.494 9.71567 120.318 9.778 120.103 9.778C119.876 9.778 119.666 9.70433 119.474 9.557C119.292 9.39833 119.145 9.15467 119.032 8.826L118.709 7.84L119.525 8.214C119.389 8.20267 119.247 8.19133 119.1 8.18C118.964 8.16867 118.816 8.163 118.658 8.163C118.193 8.18567 117.853 8.32167 117.638 8.571C117.422 8.82033 117.315 9.12067 117.315 9.472C117.315 9.82333 117.417 10.1293 117.621 10.39C117.825 10.6393 118.165 10.9397 118.641 11.291C118.992 11.5517 119.275 11.801 119.491 12.039C119.717 12.2657 119.882 12.515 119.984 12.787C120.097 13.0477 120.154 13.3537 120.154 13.705C120.154 14.181 120.018 14.6117 119.746 14.997C119.485 15.3823 119.111 15.6883 118.624 15.915C118.136 16.1303 117.547 16.238 116.856 16.238ZM123.56 16.238C123.265 16.238 123.005 16.1813 122.778 16.068C122.563 15.9547 122.393 15.7903 122.268 15.575C122.143 15.3597 122.081 15.1103 122.081 14.827C122.081 14.5437 122.115 14.2377 122.183 13.909C122.251 13.569 122.313 13.2517 122.37 12.957L123.339 8.724L123.679 9.217L121.758 9.064L121.86 8.401L125.107 7.483L125.515 7.687L124.359 12.634C124.325 12.8153 124.291 12.991 124.257 13.161C124.223 13.331 124.195 13.4897 124.172 13.637C124.149 13.773 124.138 13.9033 124.138 14.028C124.138 14.266 124.195 14.4473 124.308 14.572C124.433 14.6853 124.597 14.742 124.801 14.742C125.039 14.742 125.283 14.6853 125.532 14.572C125.781 14.4587 126.065 14.283 126.382 14.045C126.699 13.7957 127.062 13.484 127.47 13.11L127.64 13.773H127.351C126.92 14.283 126.49 14.725 126.059 15.099C125.64 15.4617 125.22 15.745 124.801 15.949C124.393 16.1417 123.979 16.238 123.56 16.238ZM128.099 16.238C127.725 16.238 127.425 16.1303 127.198 15.915C126.971 15.6883 126.858 15.3653 126.858 14.946C126.858 14.81 126.869 14.6627 126.892 14.504C126.926 14.334 126.977 14.1187 127.045 13.858H126.96L127.589 10.883C127.691 10.3957 127.787 9.90833 127.878 9.421C127.98 8.93367 128.071 8.44067 128.15 7.942L129.833 7.5L130.19 7.687L128.949 13.484C128.904 13.688 128.864 13.8807 128.83 14.062C128.796 14.232 128.779 14.368 128.779 14.47C128.779 14.5947 128.813 14.691 128.881 14.759C128.949 14.827 129.04 14.861 129.153 14.861C129.346 14.861 129.544 14.7703 129.748 14.589C129.963 14.4077 130.224 14.113 130.53 13.705L131.074 14.079C130.836 14.4417 130.57 14.793 130.275 15.133C129.98 15.4617 129.652 15.728 129.289 15.932C128.938 16.136 128.541 16.238 128.099 16.238ZM132.274 16.153L131.968 15.983L133.481 8.809L134.059 9.251L131.917 9.081L132.036 8.418L135.147 7.483L135.521 7.687L135.147 9.897L135.164 10.033L134.671 12.294C134.535 12.906 134.411 13.5237 134.297 14.147C134.184 14.759 134.065 15.3767 133.94 16L132.274 16.153ZM138.105 16.238C137.72 16.238 137.42 16.1417 137.204 15.949C137 15.7563 136.898 15.5013 136.898 15.184C136.898 14.9573 136.927 14.725 136.983 14.487C137.04 14.2377 137.102 13.9657 137.17 13.671L137.816 11.019C137.884 10.7357 137.941 10.475 137.986 10.237C138.043 9.999 138.071 9.80067 138.071 9.642C138.071 9.404 138.02 9.234 137.918 9.132C137.816 9.03 137.669 8.979 137.476 8.979C137.272 8.979 137.04 9.03567 136.779 9.149C136.519 9.251 136.23 9.41533 135.912 9.642C135.606 9.86867 135.266 10.1577 134.892 10.509L134.841 9.744H135.062C135.448 9.29067 135.844 8.89967 136.252 8.571C136.66 8.231 137.08 7.96467 137.51 7.772C137.941 7.57933 138.36 7.483 138.768 7.483C139.188 7.483 139.516 7.602 139.754 7.84C139.992 8.06667 140.111 8.40667 140.111 8.86C140.111 9.12067 140.083 9.387 140.026 9.659C139.981 9.931 139.924 10.203 139.856 10.475L139.108 13.518C139.063 13.7333 139.018 13.9203 138.972 14.079C138.938 14.2377 138.921 14.3737 138.921 14.487C138.921 14.6003 138.95 14.691 139.006 14.759C139.063 14.827 139.142 14.861 139.244 14.861C139.437 14.861 139.647 14.7703 139.873 14.589C140.1 14.3963 140.361 14.1017 140.655 13.705L141.182 14.062C140.967 14.4247 140.701 14.776 140.383 15.116C140.077 15.4447 139.732 15.7167 139.346 15.932C138.972 16.136 138.559 16.238 138.105 16.238ZM143.591 16.238C143.274 16.238 142.979 16.1587 142.707 16C142.446 15.8527 142.237 15.609 142.078 15.269C141.919 14.929 141.84 14.4813 141.84 13.926C141.84 13.3253 141.948 12.719 142.163 12.107C142.378 11.495 142.673 10.9113 143.047 10.356C143.432 9.80067 143.863 9.30767 144.339 8.877C144.815 8.44633 145.308 8.10633 145.818 7.857C146.339 7.60767 146.849 7.483 147.348 7.483C147.586 7.483 147.796 7.517 147.977 7.585C148.17 7.64167 148.351 7.738 148.521 7.874C148.702 8.01 148.884 8.18567 149.065 8.401L148.198 9.336C147.983 9.098 147.762 8.928 147.535 8.826C147.308 8.724 147.065 8.673 146.804 8.673C146.589 8.673 146.373 8.71267 146.158 8.792C145.954 8.87133 145.756 8.979 145.563 9.115C145.382 9.251 145.212 9.41533 145.053 9.608C144.86 9.812 144.685 10.0557 144.526 10.339C144.379 10.6223 144.248 10.9227 144.135 11.24C144.033 11.5573 143.948 11.8803 143.88 12.209C143.823 12.5377 143.795 12.855 143.795 13.161C143.795 13.7163 143.886 14.1187 144.067 14.368C144.248 14.6173 144.492 14.742 144.798 14.742C145.013 14.742 145.234 14.6853 145.461 14.572C145.699 14.4587 145.96 14.2717 146.243 14.011C146.538 13.7503 146.866 13.4103 147.229 12.991L147.433 13.654H147.127C146.798 14.1527 146.436 14.6003 146.039 14.997C145.654 15.3823 145.251 15.6883 144.832 15.915C144.413 16.1303 143.999 16.238 143.591 16.238ZM147.926 16.238C147.541 16.238 147.235 16.1303 147.008 15.915C146.781 15.6883 146.668 15.3767 146.668 14.98C146.668 14.844 146.674 14.7023 146.685 14.555C146.708 14.3963 146.736 14.198 146.77 13.96L146.719 13.875L147.824 8.554L148.011 8.18L148.691 4.78L149.184 5.324L147.025 5.069L147.127 4.423L150.391 3.59L150.748 3.76L148.725 13.501C148.68 13.7277 148.64 13.9203 148.606 14.079C148.583 14.2263 148.572 14.351 148.572 14.453C148.572 14.5777 148.606 14.6797 148.674 14.759C148.742 14.827 148.833 14.861 148.946 14.861C149.127 14.861 149.331 14.7647 149.558 14.572C149.796 14.3793 150.057 14.0847 150.34 13.688L150.867 14.045C150.652 14.4417 150.391 14.8043 150.085 15.133C149.779 15.4617 149.445 15.728 149.082 15.932C148.719 16.136 148.334 16.238 147.926 16.238ZM151.826 16.153L151.503 15.983L153.101 8.282C153.237 7.69267 153.362 7.109 153.475 6.531C153.589 5.953 153.691 5.36367 153.781 4.763L154.427 5.324L152.268 5.069L152.37 4.423L155.6 3.59L155.94 3.76L154.648 9.795L154.682 9.999L154.189 12.277C154.099 12.719 154.014 13.144 153.934 13.552C153.855 13.96 153.776 14.368 153.696 14.776C153.628 15.1727 153.555 15.5807 153.475 16L151.826 16.153ZM157.623 16.238C157.227 16.238 156.921 16.1417 156.705 15.949C156.501 15.7563 156.399 15.5013 156.399 15.184C156.399 14.9573 156.428 14.725 156.484 14.487C156.552 14.2377 156.62 13.9657 156.688 13.671L157.334 11.019C157.402 10.7357 157.459 10.475 157.504 10.237C157.55 9.999 157.572 9.80067 157.572 9.642C157.572 9.404 157.521 9.234 157.419 9.132C157.317 9.03 157.176 8.979 156.994 8.979C156.779 8.979 156.541 9.03567 156.28 9.149C156.031 9.251 155.748 9.421 155.43 9.659C155.113 9.88567 154.762 10.1747 154.376 10.526L154.325 9.744H154.58C154.966 9.29067 155.362 8.89967 155.77 8.571C156.178 8.231 156.598 7.96467 157.028 7.772C157.459 7.57933 157.878 7.483 158.286 7.483C158.706 7.483 159.034 7.602 159.272 7.84C159.51 8.06667 159.629 8.40667 159.629 8.86C159.629 9.12067 159.601 9.387 159.544 9.659C159.499 9.931 159.442 10.203 159.374 10.475L158.626 13.518C158.581 13.7333 158.536 13.9203 158.49 14.079C158.456 14.2377 158.439 14.3737 158.439 14.487C158.439 14.6003 158.468 14.691 158.524 14.759C158.581 14.827 158.66 14.861 158.762 14.861C158.944 14.861 159.148 14.7703 159.374 14.589C159.612 14.3963 159.873 14.1017 160.156 13.705L160.7 14.062C160.474 14.4247 160.207 14.776 159.901 15.116C159.595 15.4447 159.25 15.7167 158.864 15.932C158.49 16.136 158.077 16.238 157.623 16.238ZM164.338 16.238C163.772 16.238 163.267 16.1133 162.825 15.864C162.395 15.6147 162.055 15.252 161.805 14.776C161.567 14.3 161.448 13.7107 161.448 13.008C161.448 12.2827 161.573 11.5913 161.822 10.934C162.083 10.2653 162.434 9.676 162.876 9.166C163.318 8.64467 163.828 8.23667 164.406 7.942C164.996 7.636 165.625 7.483 166.293 7.483C166.962 7.483 167.478 7.64167 167.84 7.959C168.214 8.265 168.401 8.67867 168.401 9.2C168.401 9.55133 168.294 9.90267 168.078 10.254C167.874 10.6053 167.54 10.951 167.075 11.291C166.611 11.6197 166.01 11.937 165.273 12.243C164.537 12.5377 163.636 12.804 162.57 13.042L162.536 12.396C163.602 12.1353 164.44 11.8237 165.052 11.461C165.676 11.0983 166.118 10.7243 166.378 10.339C166.639 9.94233 166.769 9.574 166.769 9.234C166.769 8.95067 166.696 8.73533 166.548 8.588C166.412 8.42933 166.225 8.35 165.987 8.35C165.715 8.35 165.421 8.46333 165.103 8.69C164.797 8.91667 164.508 9.22833 164.236 9.625C163.964 10.0217 163.738 10.4693 163.556 10.968C163.386 11.4667 163.301 11.9937 163.301 12.549C163.301 13.3197 163.46 13.8807 163.777 14.232C164.106 14.5833 164.537 14.759 165.069 14.759C165.421 14.759 165.732 14.7023 166.004 14.589C166.288 14.4643 166.543 14.3057 166.769 14.113C166.996 13.909 167.2 13.6937 167.381 13.467L167.891 13.858C167.71 14.1527 167.5 14.4473 167.262 14.742C167.024 15.0253 166.752 15.2803 166.446 15.507C166.152 15.7337 165.829 15.9093 165.477 16.034C165.137 16.17 164.758 16.238 164.338 16.238ZM169.61 15.082C169.61 14.878 169.632 14.6457 169.678 14.385C169.723 14.1243 169.774 13.841 169.831 13.535L170.851 8.792L171.225 9.234L169.287 9.081L169.389 8.418L172.619 7.483L173.01 7.687L171.786 13.467C171.729 13.6823 171.684 13.875 171.65 14.045C171.627 14.215 171.616 14.351 171.616 14.453C171.616 14.5777 171.65 14.6797 171.718 14.759C171.786 14.827 171.876 14.861 171.99 14.861C172.171 14.861 172.369 14.7703 172.585 14.589C172.8 14.3963 173.055 14.096 173.35 13.688L173.894 14.045C173.656 14.4303 173.384 14.793 173.078 15.133C172.783 15.4617 172.454 15.728 172.092 15.932C171.729 16.136 171.327 16.238 170.885 16.238C170.499 16.238 170.188 16.136 169.95 15.932C169.723 15.728 169.61 15.4447 169.61 15.082ZM172.551 5.664C172.256 5.664 172.001 5.56767 171.786 5.375C171.57 5.18233 171.463 4.92167 171.463 4.593C171.463 4.24167 171.587 3.94133 171.837 3.692C172.086 3.44267 172.381 3.318 172.721 3.318C173.038 3.318 173.299 3.41433 173.503 3.607C173.707 3.79967 173.809 4.05467 173.809 4.372C173.809 4.72333 173.684 5.02933 173.435 5.29C173.185 5.53933 172.891 5.664 172.551 5.664ZM174.851 8.673L175.004 7.874L177.248 7.619V7.721H180.478L180.257 8.758L177.163 8.656H177.112L174.851 8.673ZM176.347 16.238C175.961 16.238 175.661 16.1417 175.446 15.949C175.23 15.7563 175.123 15.473 175.123 15.099C175.123 14.8837 175.14 14.6513 175.174 14.402C175.208 14.1527 175.259 13.875 175.327 13.569L176.483 8.231L177.707 5.409H178.948L177.265 13.501C177.219 13.7163 177.18 13.9033 177.146 14.062C177.123 14.2093 177.112 14.334 177.112 14.436C177.112 14.572 177.151 14.674 177.231 14.742C177.31 14.81 177.401 14.844 177.503 14.844C177.639 14.844 177.775 14.8043 177.911 14.725C178.058 14.6457 178.211 14.521 178.37 14.351C178.54 14.1697 178.732 13.9373 178.948 13.654L179.492 14.011C179.242 14.4077 178.959 14.776 178.642 15.116C178.324 15.456 177.973 15.728 177.588 15.932C177.214 16.136 176.8 16.238 176.347 16.238ZM1.054 36.082C1.054 35.878 1.07667 35.6457 1.122 35.385C1.16733 35.1243 1.21833 34.841 1.275 34.535L2.295 29.792L2.669 30.234L0.731 30.081L0.833 29.418L4.063 28.483L4.454 28.687L3.23 34.467C3.17333 34.6823 3.128 34.875 3.094 35.045C3.07133 35.215 3.06 35.351 3.06 35.453C3.06 35.5777 3.094 35.6797 3.162 35.759C3.23 35.827 3.32067 35.861 3.434 35.861C3.61533 35.861 3.81367 35.7703 4.029 35.589C4.24433 35.3963 4.49933 35.096 4.794 34.688L5.338 35.045C5.1 35.4303 4.828 35.793 4.522 36.133C4.22733 36.4617 3.89867 36.728 3.536 36.932C3.17333 37.136 2.771 37.238 2.329 37.238C1.94367 37.238 1.632 37.136 1.394 36.932C1.16733 36.728 1.054 36.4447 1.054 36.082ZM3.995 26.664C3.70033 26.664 3.44533 26.5677 3.23 26.375C3.01467 26.1823 2.907 25.9217 2.907 25.593C2.907 25.2417 3.03167 24.9413 3.281 24.692C3.53033 24.4427 3.825 24.318 4.165 24.318C4.48233 24.318 4.743 24.4143 4.947 24.607C5.151 24.7997 5.253 25.0547 5.253 25.372C5.253 25.7233 5.12833 26.0293 4.879 26.29C4.62967 26.5393 4.335 26.664 3.995 26.664ZM6.58391 37.153L6.27791 36.983L7.79091 29.809L8.36891 30.251L6.22691 30.081L6.34591 29.418L9.45691 28.483L9.83091 28.687L9.45691 30.897L9.47391 31.033L8.98091 33.294C8.84491 33.906 8.72025 34.5237 8.60691 35.147C8.49358 35.759 8.37458 36.3767 8.24991 37L6.58391 37.153ZM12.4149 37.238C12.0296 37.238 11.7292 37.1417 11.5139 36.949C11.3099 36.7563 11.2079 36.5013 11.2079 36.184C11.2079 35.9573 11.2362 35.725 11.2929 35.487C11.3496 35.2377 11.4119 34.9657 11.4799 34.671L12.1259 32.019C12.1939 31.7357 12.2506 31.475 12.2959 31.237C12.3526 30.999 12.3809 30.8007 12.3809 30.642C12.3809 30.404 12.3299 30.234 12.2279 30.132C12.1259 30.03 11.9786 29.979 11.7859 29.979C11.5819 29.979 11.3496 30.0357 11.0889 30.149C10.8282 30.251 10.5392 30.4153 10.2219 30.642C9.91591 30.8687 9.57591 31.1577 9.20191 31.509L9.15091 30.744H9.37191C9.75725 30.2907 10.1539 29.8997 10.5619 29.571C10.9699 29.231 11.3892 28.9647 11.8199 28.772C12.2506 28.5793 12.6699 28.483 13.0779 28.483C13.4972 28.483 13.8259 28.602 14.0639 28.84C14.3019 29.0667 14.4209 29.4067 14.4209 29.86C14.4209 30.1207 14.3926 30.387 14.3359 30.659C14.2906 30.931 14.2339 31.203 14.1659 31.475L13.4179 34.518C13.3726 34.7333 13.3272 34.9203 13.2819 35.079C13.2479 35.2377 13.2309 35.3737 13.2309 35.487C13.2309 35.6003 13.2592 35.691 13.3159 35.759C13.3726 35.827 13.4519 35.861 13.5539 35.861C13.7466 35.861 13.9562 35.7703 14.1829 35.589C14.4096 35.3963 14.6702 35.1017 14.9649 34.705L15.4919 35.062C15.2766 35.4247 15.0102 35.776 14.6929 36.116C14.3869 36.4447 14.0412 36.7167 13.6559 36.932C13.2819 37.136 12.8682 37.238 12.4149 37.238ZM21.6856 37.238C21.3683 37.238 21.0736 37.1587 20.8016 37C20.541 36.8527 20.3313 36.609 20.1726 36.269C20.014 35.929 19.9346 35.4813 19.9346 34.926C19.9346 34.3253 20.0423 33.719 20.2576 33.107C20.473 32.495 20.7676 31.9113 21.1416 31.356C21.527 30.8007 21.9576 30.3077 22.4336 29.877C22.9096 29.4463 23.4026 29.1063 23.9126 28.857C24.434 28.6077 24.944 28.483 25.4426 28.483C25.6806 28.483 25.8903 28.517 26.0716 28.585C26.2643 28.6417 26.4456 28.738 26.6156 28.874C26.797 29.01 26.9783 29.1857 27.1596 29.401L26.2926 30.336C26.0773 30.098 25.8563 29.928 25.6296 29.826C25.403 29.724 25.1593 29.673 24.8986 29.673C24.6833 29.673 24.468 29.7127 24.2526 29.792C24.0486 29.8713 23.8503 29.979 23.6576 30.115C23.4763 30.251 23.3063 30.4153 23.1476 30.608C22.955 30.812 22.7793 31.0557 22.6206 31.339C22.4733 31.6223 22.343 31.9227 22.2296 32.24C22.1276 32.5573 22.0426 32.8803 21.9746 33.209C21.918 33.5377 21.8896 33.855 21.8896 34.161C21.8896 34.7163 21.9803 35.1187 22.1616 35.368C22.343 35.6173 22.5866 35.742 22.8926 35.742C23.108 35.742 23.329 35.6853 23.5556 35.572C23.7936 35.4587 24.0543 35.2717 24.3376 35.011C24.6323 34.7503 24.961 34.4103 25.3236 33.991L25.5276 34.654H25.2216C24.893 35.1527 24.5303 35.6003 24.1336 35.997C23.7483 36.3823 23.346 36.6883 22.9266 36.915C22.5073 37.1303 22.0936 37.238 21.6856 37.238ZM26.0206 37.238C25.6353 37.238 25.3293 37.1303 25.1026 36.915C24.876 36.6883 24.7626 36.3767 24.7626 35.98C24.7626 35.844 24.7683 35.7023 24.7796 35.555C24.8023 35.3963 24.8306 35.198 24.8646 34.96L24.8136 34.875L25.9186 29.554L26.1056 29.18L26.7856 25.78L27.2786 26.324L25.1196 26.069L25.2216 25.423L28.4856 24.59L28.8426 24.76L26.8196 34.501C26.7743 34.7277 26.7346 34.9203 26.7006 35.079C26.678 35.2263 26.6666 35.351 26.6666 35.453C26.6666 35.5777 26.7006 35.6797 26.7686 35.759C26.8366 35.827 26.9273 35.861 27.0406 35.861C27.222 35.861 27.426 35.7647 27.6526 35.572C27.8906 35.3793 28.1513 35.0847 28.4346 34.688L28.9616 35.045C28.7463 35.4417 28.4856 35.8043 28.1796 36.133C27.8736 36.4617 27.5393 36.728 27.1766 36.932C26.814 37.136 26.4286 37.238 26.0206 37.238ZM32.4887 37.238C31.9221 37.238 31.4177 37.1133 30.9757 36.864C30.5451 36.6147 30.2051 36.252 29.9557 35.776C29.7177 35.3 29.5987 34.7107 29.5987 34.008C29.5987 33.2827 29.7234 32.5913 29.9727 31.934C30.2334 31.2653 30.5847 30.676 31.0267 30.166C31.4687 29.6447 31.9787 29.2367 32.5567 28.942C33.1461 28.636 33.7751 28.483 34.4437 28.483C35.1124 28.483 35.6281 28.6417 35.9907 28.959C36.3647 29.265 36.5517 29.6787 36.5517 30.2C36.5517 30.5513 36.4441 30.9027 36.2287 31.254C36.0247 31.6053 35.6904 31.951 35.2257 32.291C34.7611 32.6197 34.1604 32.937 33.4237 33.243C32.6871 33.5377 31.7861 33.804 30.7207 34.042L30.6867 33.396C31.7521 33.1353 32.5907 32.8237 33.2027 32.461C33.8261 32.0983 34.2681 31.7243 34.5287 31.339C34.7894 30.9423 34.9197 30.574 34.9197 30.234C34.9197 29.9507 34.8461 29.7353 34.6987 29.588C34.5627 29.4293 34.3757 29.35 34.1377 29.35C33.8657 29.35 33.5711 29.4633 33.2537 29.69C32.9477 29.9167 32.6587 30.2283 32.3867 30.625C32.1147 31.0217 31.8881 31.4693 31.7067 31.968C31.5367 32.4667 31.4517 32.9937 31.4517 33.549C31.4517 34.3197 31.6104 34.8807 31.9277 35.232C32.2564 35.5833 32.6871 35.759 33.2197 35.759C33.5711 35.759 33.8827 35.7023 34.1547 35.589C34.4381 35.4643 34.6931 35.3057 34.9197 35.113C35.1464 34.909 35.3504 34.6937 35.5317 34.467L36.0417 34.858C35.8604 35.1527 35.6507 35.4473 35.4127 35.742C35.1747 36.0253 34.9027 36.2803 34.5967 36.507C34.3021 36.7337 33.9791 36.9093 33.6277 37.034C33.2877 37.17 32.9081 37.238 32.4887 37.238ZM40.2081 33.073L40.0211 31.883H40.3101C40.5707 31.2597 40.8541 30.693 41.1601 30.183C41.4774 29.6617 41.8117 29.2537 42.1631 28.959C42.5257 28.653 42.8997 28.5 43.2851 28.5C43.6024 28.5 43.8744 28.5623 44.1011 28.687C44.3277 28.8117 44.4864 28.9987 44.5771 29.248C44.5657 29.588 44.4694 29.8713 44.2881 30.098C44.1067 30.3247 43.8517 30.438 43.5231 30.438C43.2624 30.438 43.0301 30.3757 42.8261 30.251C42.6334 30.115 42.4294 29.9337 42.2141 29.707L41.9761 29.435L42.8431 29.486L42.6051 29.554C42.2877 29.8373 41.9931 30.1547 41.7211 30.506C41.4604 30.846 41.2054 31.2313 40.9561 31.662C40.7181 32.0813 40.4687 32.5517 40.2081 33.073ZM37.5221 36.983L39.0351 29.809L39.6131 30.251L37.4711 30.081L37.5901 29.418L40.6161 28.483L40.9731 28.687L40.4631 31.543L40.5651 31.696L40.2251 33.243C40.1004 33.8777 39.9757 34.5067 39.8511 35.13C39.7377 35.7533 39.6187 36.3767 39.4941 37L37.8281 37.153L37.5221 36.983ZM48.3169 36.507L48.6399 33.957H49.8469L50.0509 36.558L49.1329 35.759C49.4616 35.929 49.8243 36.065 50.2209 36.167C50.6176 36.269 51.0199 36.32 51.4279 36.32C51.9266 36.32 52.3403 36.2463 52.6689 36.099C52.9976 35.9403 53.2469 35.725 53.4169 35.453C53.5869 35.1697 53.6719 34.8523 53.6719 34.501C53.6719 34.2517 53.6266 34.0137 53.5359 33.787C53.4566 33.5603 53.2979 33.3167 53.0599 33.056C52.8219 32.7953 52.4706 32.5007 52.0059 32.172C51.4506 31.764 51.0029 31.3787 50.6629 31.016C50.3229 30.642 50.0736 30.268 49.9149 29.894C49.7676 29.52 49.6939 29.1233 49.6939 28.704C49.6939 28.0467 49.8639 27.4743 50.2039 26.987C50.5439 26.4883 51.0086 26.1087 51.5979 25.848C52.1986 25.576 52.8786 25.44 53.6379 25.44C53.9893 25.44 54.3406 25.4683 54.6919 25.525C55.0433 25.5817 55.3833 25.6667 55.7119 25.78C56.0406 25.8933 56.3466 26.0407 56.6299 26.222L56.2899 28.653H55.0659L54.8959 26.171L55.7799 26.97C55.4399 26.766 55.1169 26.6243 54.8109 26.545C54.5049 26.4543 54.1876 26.409 53.8589 26.409C53.3829 26.409 52.9693 26.477 52.6179 26.613C52.2779 26.749 52.0173 26.9473 51.8359 27.208C51.6659 27.4573 51.5809 27.7577 51.5809 28.109C51.5809 28.381 51.6319 28.636 51.7339 28.874C51.8473 29.112 52.0229 29.35 52.2609 29.588C52.5103 29.826 52.8333 30.0923 53.2299 30.387C53.8193 30.8063 54.2896 31.203 54.6409 31.577C54.9923 31.9397 55.2473 32.308 55.4059 32.682C55.5646 33.0447 55.6439 33.4413 55.6439 33.872C55.6439 34.5747 55.4626 35.181 55.0999 35.691C54.7486 36.201 54.2613 36.5977 53.6379 36.881C53.0259 37.153 52.3176 37.289 51.5129 37.289C51.1049 37.289 50.7026 37.255 50.3059 37.187C49.9206 37.119 49.5523 37.0283 49.2009 36.915C48.8609 36.8017 48.5663 36.6657 48.3169 36.507ZM59.9801 37.238C59.4135 37.238 58.9148 37.1133 58.4841 36.864C58.0535 36.6033 57.7191 36.235 57.4811 35.759C57.2431 35.2717 57.1241 34.6767 57.1241 33.974C57.1241 33.2373 57.2488 32.5403 57.4981 31.883C57.7588 31.2257 58.1101 30.642 58.5521 30.132C59.0055 29.622 59.5155 29.2197 60.0821 28.925C60.6601 28.6303 61.2608 28.483 61.8841 28.483C62.2921 28.483 62.6435 28.5453 62.9381 28.67C63.2328 28.7833 63.4765 28.942 63.6691 29.146C63.8731 29.35 64.0091 29.588 64.0771 29.86C64.0545 30.132 63.9525 30.353 63.7711 30.523C63.5898 30.6817 63.3631 30.761 63.0911 30.761C62.8531 30.761 62.6435 30.6873 62.4621 30.54C62.2808 30.3813 62.1108 30.183 61.9521 29.945L61.2041 28.857H62.2071V29.095H61.7991C61.4251 29.2083 61.0738 29.4123 60.7451 29.707C60.4165 29.9903 60.1218 30.3417 59.8611 30.761C59.6118 31.169 59.4135 31.6167 59.2661 32.104C59.1301 32.5913 59.0621 33.0957 59.0621 33.617C59.0621 34.3537 59.2265 34.8977 59.5551 35.249C59.8951 35.589 60.3371 35.759 60.8811 35.759C61.1645 35.759 61.4308 35.7023 61.6801 35.589C61.9408 35.4643 62.1845 35.3057 62.4111 35.113C62.6378 34.909 62.8475 34.6937 63.0401 34.467L63.5501 34.841C63.3801 35.1583 63.1705 35.4643 62.9211 35.759C62.6718 36.0423 62.3941 36.2973 62.0881 36.524C61.7821 36.7393 61.4478 36.9093 61.0851 37.034C60.7338 37.17 60.3655 37.238 59.9801 37.238ZM64.8008 37.153L64.4778 36.983L66.0758 29.282C66.2118 28.6927 66.3365 28.109 66.4498 27.531C66.5631 26.953 66.6651 26.3637 66.7558 25.763L67.4018 26.324L65.2428 26.069L65.3448 25.423L68.5748 24.59L68.9148 24.76L67.6228 30.795L67.6568 30.999L67.1638 33.277C67.0731 33.719 66.9881 34.144 66.9088 34.552C66.8295 34.96 66.7501 35.368 66.6708 35.776C66.6028 36.1727 66.5291 36.5807 66.4498 37L64.8008 37.153ZM70.5978 37.238C70.2011 37.238 69.8951 37.1417 69.6798 36.949C69.4758 36.7563 69.3738 36.5013 69.3738 36.184C69.3738 35.9573 69.4021 35.725 69.4588 35.487C69.5268 35.2377 69.5948 34.9657 69.6628 34.671L70.3088 32.019C70.3768 31.7357 70.4335 31.475 70.4788 31.237C70.5241 30.999 70.5468 30.8007 70.5468 30.642C70.5468 30.404 70.4958 30.234 70.3938 30.132C70.2918 30.03 70.1501 29.979 69.9688 29.979C69.7535 29.979 69.5155 30.0357 69.2548 30.149C69.0055 30.251 68.7221 30.421 68.4048 30.659C68.0875 30.8857 67.7361 31.1747 67.3508 31.526L67.2998 30.744H67.5548C67.9401 30.2907 68.3368 29.8997 68.7448 29.571C69.1528 29.231 69.5721 28.9647 70.0028 28.772C70.4335 28.5793 70.8528 28.483 71.2608 28.483C71.6801 28.483 72.0088 28.602 72.2468 28.84C72.4848 29.0667 72.6038 29.4067 72.6038 29.86C72.6038 30.1207 72.5755 30.387 72.5188 30.659C72.4735 30.931 72.4168 31.203 72.3488 31.475L71.6008 34.518C71.5555 34.7333 71.5101 34.9203 71.4648 35.079C71.4308 35.2377 71.4138 35.3737 71.4138 35.487C71.4138 35.6003 71.4421 35.691 71.4988 35.759C71.5555 35.827 71.6348 35.861 71.7368 35.861C71.9181 35.861 72.1221 35.7703 72.3488 35.589C72.5868 35.3963 72.8475 35.1017 73.1308 34.705L73.6748 35.062C73.4481 35.4247 73.1818 35.776 72.8758 36.116C72.5698 36.4447 72.2241 36.7167 71.8388 36.932C71.4648 37.136 71.0511 37.238 70.5978 37.238ZM76.3949 37.238C76.1003 37.238 75.8396 37.1813 75.6129 37.068C75.3976 36.9547 75.2276 36.7903 75.1029 36.575C74.9783 36.3597 74.9159 36.1103 74.9159 35.827C74.9159 35.5437 74.9499 35.2377 75.0179 34.909C75.0859 34.569 75.1483 34.2517 75.2049 33.957L76.1739 29.724L76.5139 30.217L74.5929 30.064L74.6949 29.401L77.9419 28.483L78.3499 28.687L77.1939 33.634C77.1599 33.8153 77.1259 33.991 77.0919 34.161C77.0579 34.331 77.0296 34.4897 77.0069 34.637C76.9843 34.773 76.9729 34.9033 76.9729 35.028C76.9729 35.266 77.0296 35.4473 77.1429 35.572C77.2676 35.6853 77.4319 35.742 77.6359 35.742C77.8739 35.742 78.1176 35.6853 78.3669 35.572C78.6163 35.4587 78.8996 35.283 79.2169 35.045C79.5343 34.7957 79.8969 34.484 80.3049 34.11L80.4749 34.773H80.1859C79.7553 35.283 79.3246 35.725 78.8939 36.099C78.4746 36.4617 78.0553 36.745 77.6359 36.949C77.2279 37.1417 76.8143 37.238 76.3949 37.238ZM80.9339 37.238C80.5599 37.238 80.2596 37.1303 80.0329 36.915C79.8063 36.6883 79.6929 36.3653 79.6929 35.946C79.6929 35.81 79.7043 35.6627 79.7269 35.504C79.7609 35.334 79.8119 35.1187 79.8799 34.858H79.7949L80.4239 31.883C80.5259 31.3957 80.6223 30.9083 80.7129 30.421C80.8149 29.9337 80.9056 29.4407 80.9849 28.942L82.6679 28.5L83.0249 28.687L81.7839 34.484C81.7386 34.688 81.6989 34.8807 81.6649 35.062C81.6309 35.232 81.6139 35.368 81.6139 35.47C81.6139 35.5947 81.6479 35.691 81.7159 35.759C81.7839 35.827 81.8746 35.861 81.9879 35.861C82.1806 35.861 82.3789 35.7703 82.5829 35.589C82.7983 35.4077 83.0589 35.113 83.3649 34.705L83.9089 35.079C83.6709 35.4417 83.4046 35.793 83.1099 36.133C82.8153 36.4617 82.4866 36.728 82.1239 36.932C81.7726 37.136 81.3759 37.238 80.9339 37.238ZM85.9467 37.238C85.55 37.238 85.2384 37.136 85.0117 36.932C84.7964 36.7167 84.6887 36.4163 84.6887 36.031C84.6887 35.827 84.7057 35.606 84.7397 35.368C84.785 35.1187 84.8474 34.8013 84.9267 34.416L85.9637 29.282C86.0884 28.6927 86.2074 28.109 86.3207 27.531C86.434 26.953 86.5417 26.3637 86.6437 25.763L87.2727 26.324L85.1137 26.069L85.2157 25.423L88.4457 24.59L88.8197 24.76L86.8137 34.501C86.757 34.7277 86.7174 34.9203 86.6947 35.079C86.672 35.2263 86.6607 35.351 86.6607 35.453C86.6607 35.5777 86.6947 35.6797 86.7627 35.759C86.8307 35.827 86.927 35.861 87.0517 35.861C87.2217 35.861 87.4144 35.7647 87.6297 35.572C87.845 35.3793 88.1057 35.0847 88.4117 34.688L88.9387 35.045C88.7007 35.4303 88.4344 35.793 88.1397 36.133C87.845 36.473 87.5164 36.745 87.1537 36.949C86.791 37.1417 86.3887 37.238 85.9467 37.238ZM92.4536 37.238C91.8869 37.238 91.3826 37.1133 90.9406 36.864C90.5099 36.6147 90.1699 36.252 89.9206 35.776C89.6826 35.3 89.5636 34.7107 89.5636 34.008C89.5636 33.2827 89.6882 32.5913 89.9376 31.934C90.1982 31.2653 90.5496 30.676 90.9916 30.166C91.4336 29.6447 91.9436 29.2367 92.5216 28.942C93.1109 28.636 93.7399 28.483 94.4086 28.483C95.0772 28.483 95.5929 28.6417 95.9556 28.959C96.3296 29.265 96.5166 29.6787 96.5166 30.2C96.5166 30.5513 96.4089 30.9027 96.1936 31.254C95.9896 31.6053 95.6552 31.951 95.1906 32.291C94.7259 32.6197 94.1252 32.937 93.3886 33.243C92.6519 33.5377 91.7509 33.804 90.6856 34.042L90.6516 33.396C91.7169 33.1353 92.5556 32.8237 93.1676 32.461C93.7909 32.0983 94.2329 31.7243 94.4936 31.339C94.7542 30.9423 94.8846 30.574 94.8846 30.234C94.8846 29.9507 94.8109 29.7353 94.6636 29.588C94.5276 29.4293 94.3406 29.35 94.1026 29.35C93.8306 29.35 93.5359 29.4633 93.2186 29.69C92.9126 29.9167 92.6236 30.2283 92.3516 30.625C92.0796 31.0217 91.8529 31.4693 91.6716 31.968C91.5016 32.4667 91.4166 32.9937 91.4166 33.549C91.4166 34.3197 91.5752 34.8807 91.8926 35.232C92.2212 35.5833 92.6519 35.759 93.1846 35.759C93.5359 35.759 93.8476 35.7023 94.1196 35.589C94.4029 35.4643 94.6579 35.3057 94.8846 35.113C95.1112 34.909 95.3152 34.6937 95.4966 34.467L96.0066 34.858C95.8252 35.1527 95.6156 35.4473 95.3776 35.742C95.1396 36.0253 94.8676 36.2803 94.5616 36.507C94.2669 36.7337 93.9439 36.9093 93.5926 37.034C93.2526 37.17 92.8729 37.238 92.4536 37.238Z" fill="#1A1A18"/>
</svg>
