<svg width="78" height="48" viewBox="0 0 78 48" fill="none" xmlns="http://www.w3.org/2000/svg">
<mask id="mask0_40000002_1547" style="mask-type:luminance" maskUnits="userSpaceOnUse" x="0" y="0" width="78" height="48">
<path d="M77.8166 0H0V48H77.8166V0Z" fill="white"/>
</mask>
<g mask="url(#mask0_40000002_1547)">
<path d="M12.7069 25.3781C19.7226 25.3781 25.3781 19.6868 25.3781 12.7069C25.3781 5.72707 19.6868 0 12.7069 0C5.72707 0 0 5.69128 0 12.6711C0 19.651 5.69127 25.3423 12.6711 25.3423" fill="#1A1A18"/>
</g>
<path d="M12.7071 7.15883V18.2192" stroke="white" stroke-width="6" stroke-linecap="round"/>
<path d="M7.15881 12.6711H18.2192" stroke="white" stroke-width="6" stroke-linecap="round"/>
<mask id="mask1_40000002_1547" style="mask-type:luminance" maskUnits="userSpaceOnUse" x="0" y="0" width="78" height="48">
<path d="M77.8166 0H0V48H77.8166V0Z" fill="white"/>
</mask>
<g mask="url(#mask1_40000002_1547)">
<path d="M35.9725 17.8971C35.9725 20.5459 34.8987 21.6913 33.6101 21.6913C32.3215 21.6913 32.2499 21.4765 31.5698 20.868V15.6063C32.3215 14.783 33.0016 14.425 33.7533 14.425C35.2924 14.425 35.9725 15.6063 35.9725 17.8971ZM39.8741 17.8255C39.8741 13.8523 37.977 11.2752 34.8629 11.2752C31.7488 11.2752 32.2141 11.9553 31.2119 12.8501H31.1045L30.8539 11.5615H27.7398V29.2438H31.534V25.4855L31.3908 23.4452C32.2857 24.3042 33.3237 24.8054 34.4334 24.8054C37.1895 24.8054 39.8383 22.264 39.8383 17.8255" fill="#1A1A18"/>
<path d="M45.2433 24.7696C46.1024 24.7696 46.7467 24.6264 47.1404 24.4474L46.6751 21.6555C46.4603 21.6913 46.3529 21.6913 46.2455 21.6913C45.9234 21.6913 45.5655 21.4407 45.5655 20.5816V6.26396H41.7713V20.4743C41.7713 23.0872 42.6661 24.8053 45.2433 24.8053" fill="#1A1A18"/>
<path d="M52.2232 24.8053C53.9771 24.8053 55.1583 23.9821 56.2679 22.6935H56.3395L56.6258 24.4832H59.7399V11.5973H55.9457V20.1163C55.1941 21.1185 54.6214 21.5481 53.6549 21.5481C52.6885 21.5481 52.0442 20.9396 52.0442 19.1141V11.5973H48.25V19.6152C48.25 22.8367 49.4312 24.8053 52.2232 24.8053Z" fill="#1A1A18"/>
<path d="M65.7532 24.8054C69.1894 24.8054 71.0149 22.9799 71.0149 20.6532C71.0149 18.3266 69.44 17.3602 67.4713 16.7159C65.8606 16.179 65.1089 15.8926 65.1089 15.1409C65.1089 14.3893 65.5742 14.1387 66.5765 14.1387C67.5787 14.1387 68.402 14.3893 69.3326 15.0693L70.9434 12.9217C69.8695 11.9553 68.2946 11.2752 66.4333 11.2752C63.4982 11.2752 61.5295 12.9217 61.5295 15.3199C61.5295 17.7181 63.1402 18.5056 64.9657 19.1499C66.3259 19.6868 67.4713 20.0089 67.4713 20.868C67.4713 21.7271 66.9702 21.9776 65.8606 21.9776C64.751 21.9776 63.6055 21.6555 62.4601 20.7248L60.8494 22.8725C62.138 24.1253 64.0709 24.8054 65.7532 24.8054Z" fill="#1A1A18"/>
<path d="M21.7266 36.5816C21.7266 39.2304 20.6528 40.3758 19.3284 40.3758C18.0041 40.3758 17.9683 40.1611 17.2882 39.5526V34.2908C18.0398 33.4675 18.7199 33.1096 19.5074 33.1096C21.0466 33.1096 21.7266 34.2908 21.7266 36.5816ZM25.6282 36.5458C25.6282 32.5727 23.6953 29.9955 20.5812 29.9955C17.4671 29.9955 17.9325 30.6756 16.9302 31.5705H16.8228L16.5723 30.2819H13.4582V47.9642H17.2882V44.2058L17.145 42.1655C18.0398 43.0246 19.0779 43.5257 20.2233 43.5257C23.0152 43.5257 25.664 40.9843 25.664 36.5458" fill="#1A1A18"/>
<path d="M31.7131 43.5257C33.467 43.5257 34.684 42.7024 35.7578 41.4139H35.8294L36.1158 43.2036H39.2299V30.3177H35.3999V38.8367C34.6482 39.8389 34.0755 40.2684 33.109 40.2684C32.1426 40.2684 31.4983 39.6599 31.4983 37.8344V30.3177H27.6683V38.3356C27.6683 41.557 28.8495 43.5257 31.6773 43.5257" fill="#1A1A18"/>
<path d="M41.807 43.2036H45.637V34.5056C46.4602 33.6823 47.0687 33.2528 48.0352 33.2528C49.0016 33.2528 49.6101 33.8255 49.6101 35.6868V43.2036H53.4401V35.1857C53.4401 31.9642 52.2589 29.9955 49.4312 29.9955C46.6034 29.9955 46.3887 30.8904 45.3148 31.9284H45.2075L44.9569 30.2819H41.8428V43.1678L41.807 43.2036Z" fill="#1A1A18"/>
</g>
<path d="M55.9463 43.2036H59.7405V39.9821L61.3154 38.1924L64.2148 43.2036H68.3669L63.5347 35.651L68.009 30.3177H63.821L59.8479 35.3647H59.7405V25.5213H55.9463V43.2036Z" fill="#1A1A18"/>
<path d="M59.7047 21.4049H55.9463V24.4832H59.7047V21.4049Z" fill="#1A1A18"/>
<mask id="mask2_40000002_1547" style="mask-type:luminance" maskUnits="userSpaceOnUse" x="0" y="0" width="78" height="48">
<path d="M77.8166 0H0V48H77.8166V0Z" fill="white"/>
</mask>
<g mask="url(#mask2_40000002_1547)">
<path d="M74.9537 43.4899C76.1707 43.4899 77.173 43.2394 77.853 42.953L77.2445 40.2684C76.8866 40.4116 76.4213 40.4832 76.0275 40.4832C75.0253 40.4832 74.381 39.8747 74.381 38.4429V33.2886H77.4593V30.2819H74.381V26.3445H71.1953L70.7658 30.2819L68.7971 30.4251V33.2528H70.551V38.4429C70.551 41.4497 71.8038 43.4183 74.9895 43.4183" fill="#1A1A18"/>
</g>
</svg>
